# xmcd CD database file
#
# Track frame offsets:
#	150
#	16929
#	26015
#	52294
#
# Disc length: 869 seconds
#
# Revision: 0
# Processed by: cddbd v1.5.1PL2 Copyright (c) Steve Scherf et al.
# Submitted via: CDex 1.51
#
DISCID=2e036304
DTITLE=Zeph Label - de la jetset (jetgrind * remix bonus CD)
DYEAR=2005
DGENRE=Pop
TTITLE0=Asnal - Cloud
TTITLE1=Mass Kaneko - over the ocean (hdi remix)
TTITLE2=DJ Technorch - 超超超無理 (Scharanz Remix)
TTITLE3=EarBreaker - 5162
EXTD=YEAR: 2005
EXTT0=
EXTT1=
EXTT2=
EXTT3=
PLAYORDER=
